<!DOCTYPE svg PUBLIC "-//W3C//DTD SVG 1.1//EN" "http://www.w3.org/Graphics/SVG/1.1/DTD/svg11.dtd">
<!-- Uploaded to: SVG Repo, www.svgrepo.com, Transformed by: SVG Repo Mixer Tools -->
<svg width="800px" height="800px" viewBox="0 0 8.4666669 8.4666669" id="svg8" version="1.1" xmlns="http://www.w3.org/2000/svg" xmlns:cc="http://creativecommons.org/ns#" xmlns:dc="http://purl.org/dc/elements/1.1/" xmlns:inkscape="http://www.inkscape.org/namespaces/inkscape" xmlns:rdf="http://www.w3.org/1999/02/22-rdf-syntax-ns#" xmlns:sodipodi="http://sodipodi.sourceforge.net/DTD/sodipodi-0.dtd" xmlns:svg="http://www.w3.org/2000/svg" fill="#000000">
<g id="SVGRepo_bgCarrier" stroke-width="0"/>
<g id="SVGRepo_tracerCarrier" stroke-linecap="round" stroke-linejoin="round"/>
<g id="SVGRepo_iconCarrier"> <defs id="defs2"/> <g id="layer1" transform="translate(0,-288.53332)"> <path d="M 11.996094 1.0039062 C 5.9328116 1.0039062 0.99610131 5.9386839 0.99609375 12.001953 C 0.99610131 18.06526 5.9328116 23.001953 11.996094 23.001953 C 14.670102 23.001953 17.122499 22.040573 19.03125 20.447266 L 29.291016 30.708984 C 30.235897 31.653866 31.653866 30.235898 30.708984 29.291016 L 20.447266 19.029297 C 22.03584 17.121901 22.994137 14.671545 22.994141 12.001953 C 22.994133 5.9386839 18.059376 1.0039062 11.996094 1.0039062 z M 11.996094 3.0039062 C 16.978497 3.003944 20.994135 7.0195531 20.994141 12.001953 C 20.994135 16.984391 16.978497 21.001953 11.996094 21.001953 C 7.0136911 21.001953 2.9960999 16.984391 2.9960938 12.001953 C 2.9960999 7.0195531 7.0136911 3.003944 11.996094 3.0039062 z " id="path935" style="color:#ffffff;font-style:normal;font-variant:normal;font-weight:normal;font-stretch:normal;font-size:medium;line-height:normal;font-family:sans-serif;font-variant-ligatures:normal;font-variant-position:normal;font-variant-caps:normal;font-variant-numeric:normal;font-variant-alternates:normal;font-feature-settings:normal;text-indent:0;text-align:start;text-decoration:none;text-decoration-line:none;text-decoration-style:solid;text-decoration-color:#ffffff;letter-spacing:normal;word-spacing:normal;text-transform:none;writing-mode:lr-tb;direction:ltr;text-orientation:mixed;dominant-baseline:auto;baseline-shift:baseline;text-anchor:start;white-space:normal;shape-padding:0;clip-rule:nonzero;display:inline;overflow:visible;visibility:visible;opacity:1;isolation:auto;mix-blend-mode:normal;color-interpolation:sRGB;color-interpolation-filters:linearRGB;solid-color:#ffffff;solid-opacity:1;vector-effect:none;fill:#ffffff;fill-opacity:1;fill-rule:nonzero;stroke:none;stroke-width:1.99999988;stroke-linecap:round;stroke-linejoin:round;stroke-miterlimit:4;stroke-dasharray:none;stroke-dashoffset:0;stroke-opacity:1;paint-order:stroke fill markers;color-rendering:auto;image-rendering:auto;shape-rendering:auto;text-rendering:auto;enable-background:accumulate" transform="matrix(0.26458333,0,0,0.26458333,0,288.53332)"/> </g> </g>
</svg>